<svg xmlns="http://www.w3.org/2000/svg" width="1200" height="800" viewBox="0 0 1200 800" role="img" aria-labelledby="title desc">
  <title id="title">TradeScout Driving School category placeholder</title>
  <desc id="desc">Generic illustrated placeholder tile for the TradeScout Driving School category.</desc>
  <defs>
    <linearGradient id="bg" x1="0" y1="0" x2="1" y2="1">
      <stop offset="0%" stop-color="#111827"/>
      <stop offset="100%" stop-color="#020617"/>
    </linearGradient>
    <radialGradient id="glow" cx="53%" cy="23%" r="65%">
      <stop offset="0%" stop-color="#facc15" stop-opacity=".42"/>
      <stop offset="58%" stop-color="#facc15" stop-opacity=".12"/>
      <stop offset="100%" stop-color="#facc15" stop-opacity="0"/>
    </radialGradient>
    <pattern id="grid" width="64" height="64" patternUnits="userSpaceOnUse">
      <path d="M64 0H0V64" fill="none" stroke="#f8fafc" stroke-opacity=".045" stroke-width="2"/>
    </pattern>
  </defs>
  <rect width="1200" height="800" rx="54" fill="url(#bg)"/>
  <rect width="1200" height="800" rx="54" fill="url(#grid)"/>
  <rect width="1200" height="800" rx="54" fill="url(#glow)"/>
  <circle cx="882" cy="113" r="128" fill="#facc15" fill-opacity="0.096"/>
  <circle cx="203" cy="627" r="148" fill="#facc15" fill-opacity="0.120"/>
  <path d="M100 128 C260 68, 390 78, 505 173" stroke="#facc15" stroke-opacity=".22" stroke-width="18" fill="none" stroke-linecap="round"/>
  <path d="M710 607 C835 602, 940 587, 1095 517" stroke="#facc15" stroke-opacity=".13" stroke-width="20" fill="none" stroke-linecap="round"/>
  <g color="#facc15" opacity=".97" >
    
            <path d="M600 255c-95-45-175-45-270 0v310c95-45 175-45 270 0z" fill="none" stroke="currentColor" stroke-width="28" stroke-linecap="round" stroke-linejoin="round"/>
            <path d="M600 255c95-45 175-45 270 0v310c-95-45-175-45-270 0z" fill="none" stroke="currentColor" stroke-width="28" stroke-linecap="round" stroke-linejoin="round"/>
            <path d="M600 255v310M410 350h120M670 350h120M410 450h120M670 450h120" fill="none" stroke="currentColor" stroke-width="28" stroke-linecap="round" stroke-linejoin="round"/>
        
  </g>
  
</svg>
