<svg xmlns="http://www.w3.org/2000/svg" width="1200" height="800" viewBox="0 0 1200 800" role="img" aria-labelledby="title desc">
  <title id="title">TradeScout Gutters category placeholder</title>
  <desc id="desc">Generic illustrated placeholder tile for the TradeScout Gutters category.</desc>
  <defs>
    <linearGradient id="bg" x1="0" y1="0" x2="1" y2="1">
      <stop offset="0%" stop-color="#0f172a"/>
      <stop offset="100%" stop-color="#020617"/>
    </linearGradient>
    <radialGradient id="glow" cx="67%" cy="17%" r="65%">
      <stop offset="0%" stop-color="#38bdf8" stop-opacity=".42"/>
      <stop offset="58%" stop-color="#38bdf8" stop-opacity=".12"/>
      <stop offset="100%" stop-color="#38bdf8" stop-opacity="0"/>
    </radialGradient>
    <pattern id="grid" width="64" height="64" patternUnits="userSpaceOnUse">
      <path d="M64 0H0V64" fill="none" stroke="#f8fafc" stroke-opacity=".045" stroke-width="2"/>
    </pattern>
  </defs>
  <rect width="1200" height="800" rx="54" fill="url(#bg)"/>
  <rect width="1200" height="800" rx="54" fill="url(#grid)"/>
  <rect width="1200" height="800" rx="54" fill="url(#glow)"/>
  <circle cx="948" cy="167" r="112" fill="#38bdf8" fill-opacity="0.084"/>
  <circle cx="212" cy="628" r="142" fill="#38bdf8" fill-opacity="0.110"/>
  <path d="M100 182 C260 77, 390 72, 505 182" stroke="#38bdf8" stroke-opacity=".22" stroke-width="18" fill="none" stroke-linecap="round"/>
  <path d="M710 643 C835 588, 940 623, 1095 553" stroke="#38bdf8" stroke-opacity=".13" stroke-width="20" fill="none" stroke-linecap="round"/>
  <g color="#38bdf8" opacity=".97" >
    
            <path d="M335 410l265-210 265 210" fill="none" stroke="currentColor" stroke-width="28" stroke-linecap="round" stroke-linejoin="round"/>
            <path d="M410 395v235h380V395" fill="none" stroke="currentColor" stroke-width="28" stroke-linecap="round" stroke-linejoin="round"/>
            <path d="M505 630V485h135v145" fill="none" stroke="currentColor" stroke-width="28" stroke-linecap="round" stroke-linejoin="round"/>
            <path d="M710 515l105 105M805 505l-110 110" fill="none" stroke="currentColor" stroke-width="28" stroke-linecap="round" stroke-linejoin="round"/>
        
  </g>
  
</svg>
