<svg xmlns="http://www.w3.org/2000/svg" width="1200" height="800" viewBox="0 0 1200 800" role="img" aria-labelledby="title desc">
  <title id="title">TradeScout Locksmith category placeholder</title>
  <desc id="desc">Generic illustrated placeholder tile for the TradeScout Locksmith category.</desc>
  <defs>
    <linearGradient id="bg" x1="0" y1="0" x2="1" y2="1">
      <stop offset="0%" stop-color="#111827"/>
      <stop offset="100%" stop-color="#020617"/>
    </linearGradient>
    <radialGradient id="glow" cx="59%" cy="29%" r="65%">
      <stop offset="0%" stop-color="#a78bfa" stop-opacity=".42"/>
      <stop offset="58%" stop-color="#a78bfa" stop-opacity=".12"/>
      <stop offset="100%" stop-color="#a78bfa" stop-opacity="0"/>
    </radialGradient>
    <pattern id="grid" width="64" height="64" patternUnits="userSpaceOnUse">
      <path d="M64 0H0V64" fill="none" stroke="#f8fafc" stroke-opacity=".045" stroke-width="2"/>
    </pattern>
  </defs>
  <rect width="1200" height="800" rx="54" fill="url(#bg)"/>
  <rect width="1200" height="800" rx="54" fill="url(#grid)"/>
  <rect width="1200" height="800" rx="54" fill="url(#glow)"/>
  <circle cx="906" cy="119" r="174" fill="#a78bfa" fill-opacity="0.108"/>
  <circle cx="134" cy="626" r="154" fill="#a78bfa" fill-opacity="0.070"/>
  <path d="M100 194 C260 119, 390 84, 505 224" stroke="#a78bfa" stroke-opacity=".22" stroke-width="18" fill="none" stroke-linecap="round"/>
  <path d="M710 591 C835 596, 940 571, 1095 501" stroke="#a78bfa" stroke-opacity=".13" stroke-width="20" fill="none" stroke-linecap="round"/>
  <g color="#a78bfa" opacity=".97" >
    
            <path d="M600 185l250 105v145c0 150-95 255-250 325-155-70-250-175-250-325V290z" fill="none" stroke="currentColor" stroke-width="28" stroke-linecap="round" stroke-linejoin="round"/>
            <path d="M510 440l65 65 130-155" fill="none" stroke="currentColor" stroke-width="28" stroke-linecap="round" stroke-linejoin="round"/>
            <path d="M480 615h240" fill="none" stroke="currentColor" stroke-width="28" stroke-linecap="round" stroke-linejoin="round"/>
        
  </g>
  
</svg>
