<svg xmlns="http://www.w3.org/2000/svg" width="1200" height="480" viewBox="0 0 1200 480" role="img" aria-label="Pro Fab welding and metal fabrication">
  <defs>
    <linearGradient id="bg" x1="0" y1="0" x2="1" y2="1">
      <stop offset="0" stop-color="#020202"/>
      <stop offset="0.55" stop-color="#111114"/>
      <stop offset="1" stop-color="#050505"/>
    </linearGradient>
    <radialGradient id="arc" cx="72%" cy="58%" r="38%">
      <stop offset="0" stop-color="#ffffff" stop-opacity="1"/>
      <stop offset="0.05" stop-color="#dbeafe" stop-opacity="0.95"/>
      <stop offset="0.18" stop-color="#60a5fa" stop-opacity="0.55"/>
      <stop offset="0.42" stop-color="#2563eb" stop-opacity="0.15"/>
      <stop offset="1" stop-color="#020202" stop-opacity="0"/>
    </radialGradient>
    <linearGradient id="red" x1="0" y1="0" x2="1" y2="0">
      <stop offset="0" stop-color="#991b1b"/>
      <stop offset="1" stop-color="#ef4444"/>
    </linearGradient>
  </defs>
  <rect width="1200" height="480" fill="url(#bg)"/>
  <rect x="0" y="0" width="1200" height="480" fill="url(#arc)"/>
  <path d="M700 360 L1130 360 L1090 405 L660 405 Z" fill="#18181b" stroke="#52525b" stroke-width="3"/>
  <path d="M825 110 C900 95 980 130 1010 205 L950 245 C925 190 880 170 820 182 Z" fill="#18181b" stroke="#71717a" stroke-width="4"/>
  <path d="M838 155 L952 180 L930 240 L815 215 Z" fill="#09090b" stroke="#a1a1aa" stroke-width="3"/>
  <path d="M820 230 C850 250 865 285 850 330 L758 330 C770 285 782 252 820 230 Z" fill="#27272a"/>
  <path d="M846 280 L925 345" stroke="#d4d4d8" stroke-width="14" stroke-linecap="round"/>
  <circle cx="940" cy="358" r="14" fill="#ffffff"/>
  <circle cx="940" cy="358" r="38" fill="#60a5fa" opacity="0.35"/>
  <g stroke="url(#red)" stroke-width="5" stroke-linecap="round">
    <path d="M950 350 L1080 255"/><path d="M955 365 L1110 335"/><path d="M946 375 L1075 440"/>
    <path d="M925 350 L805 260"/><path d="M930 370 L775 410"/><path d="M962 345 L1035 210"/>
  </g>
  <g fill="#f97316">
    <circle cx="1080" cy="255" r="5"/><circle cx="1110" cy="335" r="6"/><circle cx="1075" cy="440" r="5"/>
    <circle cx="805" cy="260" r="5"/><circle cx="775" cy="410" r="5"/><circle cx="1035" cy="210" r="6"/>
  </g>
  <rect x="0" y="0" width="560" height="480" fill="#020202" opacity="0.7"/>
  <text x="52" y="212" fill="#ffffff" font-family="Arial, Helvetica, sans-serif" font-size="86" font-weight="900" letter-spacing="-5">PRO <tspan fill="#dc2626">FAB</tspan></text>
  <text x="56" y="260" fill="#d4d4d8" font-family="Arial, Helvetica, sans-serif" font-size="21" font-weight="700" letter-spacing="6">SPECIALTY SERVICES LLC</text>
  <rect x="52" y="350" width="410" height="4" rx="2" fill="#dc2626"/>
  <text x="52" y="395" fill="#ffffff" font-family="Arial, sans-serif" font-size="27" font-weight="800">BUILT STRONG. WELDED RIGHT.</text>
  <text x="52" y="430" fill="#a1a1aa" font-family="Arial, sans-serif" font-size="19">Custom fabrication • Welding • Field service</text>
</svg>
